<?xml version="1.0" standalone="no"?>
<!DOCTYPE svg PUBLIC "-//W3C//DTD SVG 20010904//EN"
 "http://www.w3.org/TR/2001/REC-SVG-20010904/DTD/svg10.dtd">
<svg version="1.0" xmlns="http://www.w3.org/2000/svg"
 width="500.000000pt" height="500.000000pt" viewBox="0 0 500.000000 500.000000"
 preserveAspectRatio="xMidYMid meet">

<g transform="translate(0.000000,500.000000) scale(0.100000,-0.100000)"
fill="#000000" stroke="none">
<path d="M1912 4263 c2 -21 8 -28 25 -28 26 0 74 -50 67 -69 -11 -30 55 -56
76 -31 14 17 46 20 55 5 4 -6 28 -20 55 -32 27 -12 51 -29 53 -40 6 -21 57
-26 57 -5 0 14 -63 57 -84 57 -8 0 -16 6 -19 14 -3 7 -19 16 -36 19 -18 4 -31
13 -31 22 0 9 -9 15 -25 15 -14 0 -25 4 -25 9 0 5 -27 22 -60 38 -33 15 -60
34 -60 41 0 6 -12 12 -26 12 -22 0 -25 -4 -22 -27z m158 -83 c0 -5 -7 -10 -15
-10 -8 0 -15 5 -15 10 0 6 7 10 15 10 8 0 15 -4 15 -10z"/>
<path d="M1912 4100 c-1 -93 0 -100 19 -100 10 0 27 -9 36 -20 10 -11 25 -20
35 -20 10 0 18 -7 18 -15 0 -8 9 -15 19 -15 11 0 26 -7 35 -15 8 -8 22 -15 30
-15 9 0 24 -9 33 -20 19 -21 53 -27 53 -9 0 6 -9 13 -20 16 -11 3 -20 9 -20
12 0 11 -79 61 -95 61 -8 0 -18 7 -22 15 -5 8 -29 25 -53 38 l-45 24 2 81 c1
60 -2 82 -11 82 -9 0 -13 -27 -14 -100z"/>
<path d="M2086 4085 c-4 -11 2 -15 19 -15 30 0 32 6 6 19 -14 8 -20 7 -25 -4z"/>
<path d="M2005 4080 c-3 -5 1 -10 9 -10 9 0 16 5 16 10 0 6 -4 10 -9 10 -6 0
-13 -4 -16 -10z"/>
<path d="M2155 4050 c-11 -18 10 -32 41 -28 40 4 38 32 -3 36 -17 2 -34 -2
-38 -8z"/>
<path d="M2310 4041 c0 -6 9 -11 20 -11 12 0 24 -10 30 -24 7 -19 14 -22 34
-19 32 7 45 23 17 23 -11 0 -24 7 -28 15 -11 18 -73 32 -73 16z"/>
<path d="M2075 4010 c-8 -12 20 -24 35 -15 6 3 8 11 5 16 -8 12 -32 12 -40 -1z"/>
<path d="M3378 4013 c-10 -2 -18 -11 -18 -18 0 -8 -10 -15 -22 -17 -28 -4 -21
-23 7 -23 27 0 45 -13 39 -28 -2 -8 2 -38 9 -68 8 -30 12 -70 10 -90 -3 -21 1
-49 10 -65 12 -24 16 -120 22 -527 6 -465 5 -500 -11 -518 -9 -10 -21 -19 -25
-19 -5 0 -111 -60 -236 -133 -305 -179 -664 -387 -738 -427 -33 -18 -117 -66
-187 -107 -69 -40 -131 -73 -136 -73 -5 0 -16 -8 -25 -18 -15 -16 -13 -19 31
-42 42 -22 115 -64 167 -98 57 -36 71 -35 140 6 17 10 66 38 110 62 81 43 213
120 263 153 15 9 41 24 57 33 38 19 5 1 469 270 218 126 397 234 399 239 2 6
1 311 -2 678 l-6 669 -29 21 c-16 12 -57 37 -90 56 -61 34 -98 55 -139 78 -22
13 -38 14 -69 6z"/>
<path d="M2448 3963 c-10 -9 -31 -16 -48 -16 -32 0 -37 -6 -18 -25 15 -15 70
-16 85 -1 8 8 31 2 87 -25 41 -20 78 -41 81 -46 10 -15 35 -12 35 5 0 9 -9 15
-25 15 -16 0 -25 6 -25 15 0 8 -9 15 -19 15 -30 0 -51 11 -51 26 0 8 -8 14
-18 14 -11 0 -27 9 -37 20 -22 24 -26 25 -47 3z"/>
<path d="M2180 3955 c-16 -19 -4 -35 25 -35 32 0 42 20 20 37 -24 17 -30 16
-45 -2z"/>
<path d="M2270 3901 c0 -14 28 -33 40 -26 20 12 10 35 -15 35 -14 0 -25 -4
-25 -9z"/>
<path d="M2357 3876 c-3 -8 1 -17 9 -20 19 -7 46 4 41 18 -6 17 -44 19 -50 2z"/>
<path d="M2196 3845 c-4 -11 2 -15 25 -15 22 0 32 -5 36 -20 3 -11 11 -20 17
-20 19 0 59 47 51 59 -10 18 -33 13 -46 -10 l-11 -21 -22 21 c-26 25 -42 27
-50 6z"/>
<path d="M2425 3830 c3 -5 13 -10 21 -10 8 0 14 5 14 10 0 6 -9 10 -21 10 -11
0 -17 -4 -14 -10z"/>
<path d="M2676 3831 c-10 -16 6 -42 21 -37 8 3 19 6 24 6 15 0 10 27 -7 34
-22 8 -32 8 -38 -3z"/>
<path d="M2345 3785 c-20 -16 -25 -25 -14 -25 20 0 69 -23 69 -32 0 -5 6 -8
13 -8 7 0 18 -9 25 -20 7 -11 21 -20 32 -20 12 0 23 -7 26 -15 4 -8 14 -15 23
-15 9 0 24 -9 34 -20 9 -11 26 -20 37 -20 25 0 27 28 3 37 -51 17 -93 39 -93
51 0 6 -4 12 -10 12 -5 0 -19 9 -31 21 -11 11 -29 21 -39 22 -12 1 -24 13 -29
29 -6 15 -11 28 -13 28 -2 -1 -16 -12 -33 -25z"/>
<path d="M1920 3791 c0 -15 16 -22 34 -15 25 9 19 24 -9 24 -14 0 -25 -4 -25
-9z"/>
<path d="M2505 3790 c3 -5 8 -10 11 -10 2 0 4 5 4 10 0 6 -5 10 -11 10 -5 0
-7 -4 -4 -10z"/>
<path d="M2732 3779 c-20 -32 -1 -41 36 -18 39 26 41 39 4 39 -17 0 -32 -8
-40 -21z"/>
<path d="M1972 3758 c5 -15 58 -24 58 -10 0 5 -10 12 -22 16 -34 9 -40 7 -36
-6z"/>
<path d="M2530 3761 c0 -23 14 -41 31 -41 10 0 19 -7 19 -15 0 -8 4 -15 9 -15
5 0 7 9 4 19 -3 10 0 28 6 38 9 18 6 20 -30 21 -21 1 -39 -2 -39 -7z"/>
<path d="M2812 3753 c2 -10 10 -18 18 -18 22 0 18 29 -3 33 -14 3 -18 -1 -15
-15z"/>
<path d="M3850 3763 c0 -5 -1 -309 -3 -677 l-2 -669 -40 -24 c-22 -13 -49 -28
-60 -33 -11 -6 -27 -14 -35 -20 -25 -17 -451 -260 -455 -260 -2 0 -23 -13 -47
-29 -24 -15 -68 -42 -98 -58 -110 -60 -159 -88 -367 -209 -116 -68 -215 -124
-220 -124 -6 0 -18 -9 -28 -20 -17 -19 -17 -20 11 -32 16 -7 47 -24 69 -37 22
-14 49 -31 60 -37 11 -6 41 -23 67 -37 26 -15 53 -27 60 -27 7 0 62 28 121 63
128 73 141 81 188 110 35 22 331 194 812 472 l242 140 0 672 c0 772 13 683
-110 748 -38 21 -88 51 -109 66 -40 29 -56 35 -56 22z"/>
<path d="M1911 3625 l-1 -115 30 0 c18 0 33 -6 36 -15 8 -20 44 -19 44 1 0 13
-15 50 -25 62 -2 2 -12 -2 -24 -9 -24 -16 -37 -7 -25 18 12 28 11 87 -3 101
-17 17 -16 27 2 45 13 13 13 16 -1 21 -31 12 -33 5 -33 -109z"/>
<path d="M2648 3716 c-3 -14 -2 -26 2 -26 13 0 21 33 12 42 -6 6 -11 -1 -14
-16z"/>
<path d="M2021 3711 c-13 -10 -21 -23 -17 -30 10 -15 36 -14 42 3 3 8 14 16
25 19 10 3 19 10 19 16 0 17 -43 12 -69 -8z"/>
<path d="M2866 3718 c6 -16 71 -58 89 -58 7 0 15 6 18 14 4 10 -4 17 -24 21
-17 4 -33 13 -36 21 -3 8 -16 14 -29 14 -15 0 -21 -5 -18 -12z"/>
<path d="M2107 3693 c-16 -15 -5 -31 27 -37 57 -11 79 -52 36 -69 -10 -4 -8
-6 7 -6 12 -1 25 4 28 9 11 18 55 12 55 -7 0 -30 -15 -43 -54 -50 -27 -4 -41
-1 -55 11 -20 19 -35 8 -25 -17 17 -44 116 -52 122 -10 2 13 14 23 40 29 42
10 50 37 14 42 -13 2 -26 10 -28 17 -3 8 -18 17 -34 20 -16 3 -31 13 -34 21
-3 8 -17 14 -31 14 -15 0 -25 6 -25 14 0 8 -7 17 -16 20 -19 7 -19 7 -27 -1z"/>
<path d="M2790 3690 c0 -5 8 -10 19 -10 10 0 21 -9 24 -20 3 -12 14 -20 26
-20 26 0 28 28 4 36 -10 3 -26 10 -35 15 -23 12 -38 12 -38 -1z"/>
<path d="M2615 3670 c-8 -13 -1 -24 14 -19 6 3 7 10 2 18 -6 10 -10 10 -16 1z"/>
<path d="M2709 3663 c-18 -4 -34 -43 -18 -43 5 0 9 4 9 9 0 5 11 12 25 15 14
4 23 11 20 16 -6 10 -9 11 -36 3z"/>
<path d="M2977 3641 c-4 -16 -1 -18 21 -12 34 9 41 31 9 31 -16 0 -26 -7 -30
-19z"/>
<path d="M2080 3626 c0 -8 -7 -22 -16 -30 -14 -15 -13 -16 10 -16 16 0 26 6
26 15 0 8 7 15 15 15 8 0 15 7 15 15 0 9 -9 15 -25 15 -15 0 -25 -6 -25 -14z"/>
<path d="M2900 3628 c0 -21 22 -58 35 -58 21 0 19 29 -2 37 -10 4 -21 11 -25
17 -4 6 -8 8 -8 4z"/>
<path d="M3037 3600 c-3 -11 -1 -20 4 -20 5 0 9 5 9 10 0 6 6 10 14 10 8 0 18
5 21 10 3 6 -5 10 -18 10 -16 0 -26 -7 -30 -20z"/>
<path d="M2620 3595 c0 -10 10 -15 31 -15 27 0 30 2 19 15 -7 8 -21 15 -31 15
-11 0 -19 -7 -19 -15z"/>
<path d="M3094 3575 c4 -11 -2 -15 -21 -15 -21 0 -24 -3 -15 -12 9 -9 18 -9
34 -1 13 6 31 14 41 17 28 9 19 26 -14 26 -24 0 -30 -4 -25 -15z"/>
<path d="M2708 3572 c-25 -5 -22 -16 7 -32 14 -7 25 -17 25 -22 0 -4 12 -8 28
-8 l27 1 -22 18 c-13 11 -23 24 -23 29 0 13 -20 19 -42 14z"/>
<path d="M3164 3545 c-4 -8 -17 -15 -31 -15 -17 0 -24 -5 -21 -17 4 -21 47
-28 54 -8 11 27 23 16 29 -29 5 -31 3 -54 -8 -75 -9 -18 -11 -33 -6 -37 5 -3
9 -20 9 -38 0 -26 -5 -35 -22 -40 -22 -6 -21 -7 10 -21 17 -8 32 -19 32 -25 0
-5 4 -10 9 -10 4 0 7 68 6 151 -1 135 -4 153 -20 165 -24 18 -34 18 -41 -1z"/>
<path d="M2337 3543 c-4 -3 -7 -17 -7 -30 0 -27 25 -31 35 -6 6 16 8 16 23 -3
9 -12 32 -29 50 -38 36 -19 41 -35 12 -43 -11 -3 -20 -9 -20 -14 0 -5 -7 -9
-15 -9 -8 0 -15 -6 -15 -13 0 -25 12 -27 38 -7 13 11 30 20 37 20 7 0 15 14
19 31 9 45 9 46 -21 58 -48 20 -83 42 -83 52 0 10 -43 13 -53 2z"/>
<path d="M2858 3517 c-6 -8 -22 -12 -34 -9 -12 2 -25 -1 -29 -8 -9 -14 -6 -17
26 -25 21 -5 27 -2 32 14 3 13 13 21 27 21 11 0 18 5 15 10 -8 14 -22 13 -37
-3z"/>
<path d="M2987 3522 c-3 -4 3 -17 13 -30 13 -15 29 -22 54 -22 44 0 47 16 5
25 -17 4 -33 13 -36 21 -5 15 -29 19 -36 6z"/>
<path d="M2925 3510 c4 -6 11 -8 16 -5 14 9 11 15 -7 15 -8 0 -12 -5 -9 -10z"/>
<path d="M2047 3473 c-14 -13 -6 -33 13 -33 11 0 20 4 20 9 0 13 -26 32 -33
24z"/>
<path d="M2288 3473 c7 -3 16 -2 19 1 4 3 -2 6 -13 5 -11 0 -14 -3 -6 -6z"/>
<path d="M2860 3455 c0 -8 9 -15 20 -15 11 0 28 -9 37 -20 10 -11 25 -20 35
-20 10 0 18 -5 18 -11 0 -5 14 -15 30 -20 17 -6 30 -15 30 -20 0 -16 58 -10
64 7 9 25 8 26 -24 19 -23 -5 -30 -3 -30 8 0 18 -53 47 -84 47 -12 0 -29 9
-39 20 -20 23 -57 27 -57 5z"/>
<path d="M2190 3450 c0 -5 7 -10 16 -10 8 0 12 5 9 10 -3 6 -10 10 -16 10 -5
0 -9 -4 -9 -10z"/>
<path d="M2359 3440 c-9 -9 -23 -20 -30 -22 -11 -4 -11 -8 -3 -18 18 -18 54 5
54 35 0 29 0 29 -21 5z"/>
<path d="M3099 3442 c7 -14 17 -18 36 -14 35 6 26 26 -14 30 -29 3 -31 2 -22
-16z"/>
<path d="M2520 3441 c0 -6 5 -13 10 -16 15 -9 12 -35 -4 -35 -8 0 -16 -7 -20
-15 -3 -8 -12 -15 -19 -15 -8 0 -20 -6 -26 -14 -10 -12 -7 -18 17 -30 17 -9
32 -19 34 -24 1 -4 14 -3 27 4 23 12 23 12 2 19 -30 9 -26 32 9 50 37 19 60
19 60 0 0 -11 11 -15 40 -15 29 0 40 4 40 15 0 10 -10 15 -30 15 -16 0 -33 6
-37 13 -4 7 -20 18 -35 24 -16 7 -28 17 -28 23 0 5 -9 10 -20 10 -11 0 -20 -4
-20 -9z"/>
<path d="M2090 3420 c0 -6 14 -13 30 -16 17 -4 30 -13 30 -20 0 -8 6 -14 13
-14 21 0 106 -45 107 -57 0 -6 14 -14 30 -18 17 -4 30 -11 30 -16 0 -20 38 -8
44 14 9 34 7 59 -4 52 -6 -4 -8 -15 -5 -26 8 -25 -21 -26 -34 0 -6 10 -31 24
-56 31 -25 7 -45 16 -45 21 0 5 -16 15 -35 23 -19 8 -35 20 -35 25 0 6 -16 11
-35 11 -19 0 -35 -5 -35 -10z"/>
<path d="M2688 3319 c-10 -10 -14 -19 -9 -19 20 0 61 20 61 30 0 17 -34 10
-52 -11z"/>
<path d="M3113 3333 c-32 -6 -30 -33 2 -33 15 0 25 6 25 14 0 8 6 17 13 19 15
7 -8 6 -40 0z"/>
<path d="M2612 3284 c2 -23 8 -29 28 -29 30 0 39 29 13 39 -10 3 -24 9 -31 12
-10 5 -13 -2 -10 -22z"/>
<path d="M2744 3292 c-13 -12 -20 -29 -20 -55 0 -33 2 -36 21 -31 35 11 46 24
35 44 -7 13 -5 21 5 30 8 7 15 16 15 21 0 15 -34 9 -56 -9z"/>
<path d="M2392 3267 c2 -12 13 -26 26 -32 12 -5 22 -15 22 -22 0 -8 12 -13 28
-12 l27 0 -22 16 c-13 8 -23 24 -23 34 0 20 -10 28 -41 34 -16 3 -20 0 -17
-18z"/>
<path d="M2810 3265 c0 -9 9 -19 20 -22 11 -3 20 -12 20 -19 0 -9 11 -14 30
-14 19 0 33 -7 40 -20 6 -11 21 -20 34 -20 13 0 26 -7 30 -15 3 -8 14 -15 24
-15 24 0 72 -44 72 -65 0 -8 6 -15 13 -15 27 0 57 13 57 24 -1 11 -67 46 -88
46 -7 0 -12 9 -12 20 0 15 -7 20 -30 20 -16 0 -33 6 -37 13 -4 7 -20 18 -35
24 -16 7 -28 17 -28 23 0 5 -9 10 -20 10 -10 0 -23 6 -27 14 -4 8 -20 18 -35
21 -22 6 -28 4 -28 -10z"/>
<path d="M2647 3204 c-4 -4 -7 -18 -7 -31 0 -28 23 -27 28 1 4 20 -11 40 -21
30z"/>
<path d="M2523 3183 c-24 -9 -13 -23 17 -23 22 0 28 4 24 15 -6 15 -19 18 -41
8z"/>
<path d="M2755 3170 c-9 -14 45 -34 58 -21 5 5 6 14 3 20 -9 14 -53 14 -61 1z"/>
<path d="M2896 3145 c-9 -23 -8 -25 9 -25 17 0 19 9 6 28 -7 11 -10 10 -15 -3z"/>
<path d="M2580 3136 c0 -10 9 -16 25 -16 14 0 25 5 25 10 0 6 -4 10 -9 10 -5
0 -16 3 -25 6 -11 4 -16 1 -16 -10z"/>
<path d="M2663 3126 c-13 -6 -23 -16 -23 -23 0 -18 27 -16 34 2 3 8 9 15 13
14 21 -4 43 2 43 11 0 13 -38 11 -67 -4z"/>
<path d="M2740 3102 c0 -5 -12 -14 -26 -20 -30 -14 -23 -32 12 -32 15 0 24 6
24 15 0 9 9 15 21 15 12 0 19 5 17 13 -5 14 -48 23 -48 9z"/>
<path d="M2786 3055 c-3 -8 -12 -15 -21 -15 -8 0 -15 -4 -15 -10 0 -5 9 -10
20 -10 23 0 70 28 70 41 0 15 -48 10 -54 -6z"/>
<path d="M2890 3060 c0 -5 7 -10 15 -10 8 0 15 5 15 10 0 6 -7 10 -15 10 -8 0
-15 -4 -15 -10z"/>
<path d="M3178 3051 c9 -5 13 -27 11 -67 -1 -32 2 -83 6 -112 6 -42 5 -56 -9
-71 -16 -17 -15 -19 10 -35 14 -10 26 -16 27 -14 1 2 1 72 -1 156 l-3 152 -27
0 c-18 0 -23 -3 -14 -9z"/>
<path d="M3012 3022 c-10 -10 -27 -22 -37 -26 -15 -6 -17 -9 -6 -15 20 -12 46
-6 46 10 0 8 10 15 23 17 25 4 29 17 7 26 -9 3 -24 -3 -33 -12z"/>
<path d="M3138 3024 c-4 -6 -22 -14 -39 -18 -36 -7 -35 -30 2 -34 34 -3 51 11
47 39 -2 14 -6 20 -10 13z"/>
<path d="M2837 3013 c-31 -5 -32 -26 -1 -32 10 -2 23 -9 27 -17 4 -8 19 -14
33 -14 17 0 28 -7 31 -20 3 -11 14 -20 24 -20 27 0 23 18 -6 32 -13 6 -27 19
-30 30 -5 14 -12 17 -32 12 -23 -6 -25 -4 -20 15 3 11 4 20 4 20 -1 -1 -15 -4
-30 -6z"/>
<path d="M3035 2950 c3 -5 10 -10 16 -10 5 0 9 5 9 10 0 6 -7 10 -16 10 -8 0
-12 -4 -9 -10z"/>
<path d="M2996 2903 c-12 -12 -5 -23 14 -23 11 0 20 4 20 9 0 11 -26 22 -34
14z"/>
<path d="M3068 2882 c-33 -20 -31 -36 5 -40 15 -2 27 -10 27 -18 0 -9 11 -14
31 -14 24 0 30 4 27 18 -2 10 -12 17 -26 16 -18 0 -22 4 -20 24 4 31 -9 35
-44 14z"/>
<path d="M734 2836 c-21 -16 -19 -20 14 -31 18 -5 25 -2 29 14 3 11 12 22 22
24 9 3 2 5 -15 6 -16 0 -39 -5 -50 -13z"/>
<path d="M790 2780 c0 -5 5 -10 10 -10 6 0 10 5 10 10 0 6 -4 10 -10 10 -5 0
-10 -4 -10 -10z"/>
</g>
</svg>
